<?xml version="1.0" encoding="utf-8"?>
<!-- Generator: Adobe Illustrator 26.1.0, SVG Export Plug-In . SVG Version: 6.00 Build 0)  -->
<svg version="1.1" id="Layer_1" xmlns="http://www.w3.org/2000/svg" xmlns:xlink="http://www.w3.org/1999/xlink" x="0px" y="0px"
	 viewBox="0 0 200 200" style="enable-background:new 0 0 200 200;" xml:space="preserve">
<style type="text/css">
	.st0{fill:#171D35;}
</style>
<line x1="71.59" y1="50.64" x2="71.4" y2="50.64"/>
<path class="st0" d="M56.08,71.61h6.57v-0.09H103v31.31H62.66V79.87H48.49v37.12h64.66c2.24,0,4.01-1.86,4.01-4.01V61.46
	c0-2.24-1.77-4.01-4.01-4.01H48.98"/>
<path class="st0" d="M127.28,104.16v14.16h10.07v10.07H96.99V97.07h3.42V83.01H86.84c-2.25,0-4.01,1.76-4.01,4.01v51.51
	c0,2.15,1.76,4.01,4.01,4.01h60.65c2.23,0,4.01-1.86,4.01-4.01v-34.38H127.28z M119.75,83.01v14.06h25.7l6.06-14.06H119.75z"/>
</svg>
